<?xml version="1.0" standalone="no"?>
<!DOCTYPE svg PUBLIC "-//W3C//DTD SVG 20010904//EN"
 "http://www.w3.org/TR/2001/REC-SVG-20010904/DTD/svg10.dtd">
<svg version="1.0" xmlns="http://www.w3.org/2000/svg"
 width="256.000000pt" height="256.000000pt" viewBox="0 0 256.000000 256.000000"
 preserveAspectRatio="xMidYMid meet">
<metadata>
Created by potrace 1.15, written by Peter Selinger 2001-2017
</metadata>
<g transform="translate(0.000000,256.000000) scale(0.100000,-0.100000)"
fill="#000000" stroke="none">
<path d="M0 1280 l0 -1280 1280 0 1280 0 0 1280 0 1280 -1280 0 -1280 0 0
-1280z m640 673 c0 -7 5 -13 10 -13 6 0 10 -5 10 -12 0 -6 11 -26 25 -44 20
-26 23 -38 16 -56 -22 -58 -72 -62 -108 -9 -29 42 -29 82 -1 137 19 39 23 42
34 26 7 -9 14 -23 14 -29z m-14 -229 c42 -20 64 -59 64 -112 0 -31 -8 -48 -38
-82 -40 -46 -62 -47 -62 -4 0 43 -33 64 -99 64 -120 0 -270 -109 -338 -247
-36 -75 -40 -175 -7 -220 60 -81 146 -95 253 -42 76 38 209 162 299 279 36 47
68 88 72 92 3 5 6 -16 7 -45 1 -30 9 -71 18 -93 l16 -38 -105 -103 c-114 -111
-227 -192 -308 -219 -75 -24 -192 -23 -243 3 -106 55 -145 172 -110 328 43
194 178 363 345 432 69 28 184 31 236 7z m804 -520 c0 -8 4 -14 9 -14 5 0 13
-9 16 -20 5 -15 -8 -36 -55 -87 -121 -135 -265 -360 -305 -478 -25 -72 -25
-157 -1 -184 24 -26 46 -26 98 0 50 25 214 183 345 331 52 59 100 105 106 102
7 -2 22 -22 33 -43 l21 -39 -92 -104 c-138 -155 -323 -331 -385 -366 -41 -24
-68 -32 -103 -32 -96 0 -122 39 -121 180 2 108 26 195 94 329 55 110 186 303
260 384 58 63 80 75 80 41z m325 -524 c20 -33 40 -58 45 -55 5 3 12 0 16 -6 4
-8 3 -9 -4 -5 -7 4 -18 -7 -27 -26 -16 -33 -16 -33 2 -10 l19 23 27 -42 27
-41 -52 -72 c-70 -97 -96 -127 -131 -153 -34 -25 -95 -31 -115 -11 -20 20 -14
103 12 172 24 62 134 286 141 286 2 0 20 -27 40 -60z"/>
</g>
</svg>
